<svg width="80" height="80" viewBox="0 0 80 80" fill="none" xmlns="http://www.w3.org/2000/svg">
<path d="M29 34C31.7614 34 34 31.7614 34 29C34 26.2386 31.7614 24 29 24C26.2386 24 24 26.2386 24 29C24 31.7614 26.2386 34 29 34Z" fill="#8A8A8A"/>
<path d="M51 34C53.7614 34 56 31.7614 56 29C56 26.2386 53.7614 24 51 24C48.2386 24 46 26.2386 46 29C46 31.7614 48.2386 34 51 34Z" fill="#8A8A8A"/>
<path d="M58 54C50.775 42.1696 31.65 41.8316 24 54" stroke="#8A8A8A" stroke-width="1.5"/>
<circle cx="40" cy="40" r="33.25" stroke="#8A8A8A" stroke-width="1.5"/>
</svg>
