<svg width="140" height="36" viewBox="0 0 140 36" fill="none" xmlns="http://www.w3.org/2000/svg">
<path d="M50.9631 22.7003C50.8224 22.3688 50.6325 21.9475 50.3934 21.4365C50.1683 20.9254 49.9221 20.3729 49.6549 19.779C49.3876 19.1851 49.0992 18.5773 48.7898 17.9558C48.4944 17.3204 48.213 16.7265 47.9458 16.174C47.6785 15.6077 47.4253 15.1036 47.1861 14.6616C46.9611 14.2196 46.7782 13.8812 46.6375 13.6464C46.4828 15.2762 46.3562 17.0442 46.2577 18.9503C46.1593 20.8425 46.0749 22.7555 46.0045 24.6892H44C44.0563 23.4461 44.1196 22.1961 44.1899 20.9392C44.2602 19.6685 44.3376 18.4254 44.422 17.2099C44.5205 15.9807 44.6189 14.7859 44.7174 13.6257C44.8299 12.4655 44.9495 11.3674 45.0761 10.3315H46.8696C47.2494 10.9392 47.6574 11.6575 48.0935 12.4862C48.5295 13.3149 48.9656 14.1851 49.4017 15.0967C49.8377 15.9945 50.2597 16.8992 50.6677 17.8108C51.0756 18.7086 51.4484 19.5304 51.786 20.2762C52.1236 19.5304 52.4964 18.7086 52.9043 17.8108C53.3123 16.8992 53.7343 15.9945 54.1703 15.0967C54.6064 14.1851 55.0425 13.3149 55.4786 12.4862C55.9146 11.6575 56.3226 10.9392 56.7024 10.3315H58.4959C58.9742 14.9586 59.3329 19.7445 59.572 24.6892H57.5675C57.4971 22.7555 57.4127 20.8425 57.3143 18.9503C57.2158 17.0442 57.0892 15.2762 56.9345 13.6464C56.7938 13.8812 56.6039 14.2196 56.3648 14.6616C56.1397 15.1036 55.8935 15.6077 55.6263 16.174C55.359 16.7265 55.0706 17.3204 54.7611 17.9558C54.4657 18.5773 54.1844 19.1851 53.9171 19.779C53.6499 20.3729 53.3967 20.9254 53.1575 21.4365C52.9325 21.9475 52.7496 22.3688 52.6089 22.7003H50.9631Z" fill="#F2F2F2"/>
<path d="M62.1904 17.5C62.1904 16.2707 62.3733 15.1865 62.739 14.2472C63.1188 13.308 63.6252 12.5276 64.2582 11.9061C64.9053 11.2707 65.6509 10.7942 66.4949 10.4765C67.353 10.1588 68.2603 10 69.2168 10C70.1593 10 71.0455 10.1588 71.8754 10.4765C72.7195 10.7942 73.458 11.2707 74.091 11.9061C74.724 12.5276 75.2234 13.308 75.5891 14.2472C75.9689 15.1865 76.1588 16.2707 76.1588 17.5C76.1588 18.7293 75.9689 19.8135 75.5891 20.7528C75.2234 21.692 74.724 22.4793 74.091 23.1146C73.458 23.7362 72.7195 24.2058 71.8754 24.5235C71.0455 24.8412 70.1593 25 69.2168 25C68.2603 25 67.353 24.8412 66.4949 24.5235C65.6509 24.2058 64.9053 23.7362 64.2582 23.1146C63.6252 22.4793 63.1188 21.692 62.739 20.7528C62.3733 19.8135 62.1904 18.7293 62.1904 17.5ZM64.3426 17.5C64.3426 18.3702 64.4552 19.1644 64.6803 19.8826C64.9053 20.587 65.2218 21.1878 65.6298 21.6851C66.0518 22.1823 66.5582 22.5691 67.149 22.8453C67.7539 23.1077 68.4291 23.239 69.1746 23.239C69.9202 23.239 70.5883 23.1077 71.1791 22.8453C71.7699 22.5691 72.2693 22.1823 72.6773 21.6851C73.0993 21.1878 73.4228 20.587 73.6479 19.8826C73.8729 19.1644 73.9855 18.3702 73.9855 17.5C73.9855 16.6298 73.8729 15.8425 73.6479 15.1381C73.4228 14.4199 73.0993 13.8122 72.6773 13.3149C72.2693 12.8177 71.7699 12.4378 71.1791 12.1754C70.5883 11.8992 69.9202 11.7611 69.1746 11.7611C68.4291 11.7611 67.7539 11.8992 67.149 12.1754C66.5582 12.4378 66.0518 12.8177 65.6298 13.3149C65.2218 13.8122 64.9053 14.4199 64.6803 15.1381C64.4552 15.8425 64.3426 16.6298 64.3426 17.5Z" fill="#F2F2F2"/>
<path d="M90.6699 10.3315C90.1353 11.8508 89.6219 13.2597 89.1295 14.558C88.6513 15.8425 88.18 17.0649 87.7158 18.2251C87.2516 19.3854 86.7874 20.4972 86.3232 21.5608C85.8731 22.6105 85.4089 23.6533 84.9306 24.6892H83.0105C82.5322 23.6533 82.0609 22.6105 81.5967 21.5608C81.1466 20.4972 80.6824 19.3854 80.2041 18.2251C79.7399 17.0649 79.2616 15.8425 78.7693 14.558C78.277 13.2597 77.7706 11.8508 77.2501 10.3315H79.5078C80.2674 12.5138 81.013 14.6133 81.7444 16.6298C82.4759 18.6464 83.2285 20.5387 84.0022 22.3066C84.7759 20.5525 85.5284 18.6671 86.2599 16.6506C86.9914 14.6202 87.7299 12.5138 88.4754 10.3315H90.6699Z" fill="#F2F2F2"/>
<path d="M92.7008 10.3315H94.7475V24.6892H92.7008V10.3315Z" fill="#F2F2F2"/>
<path d="M98.3673 24.6892V10.3315H107.293V12.0511H100.414V16.3191H106.533V17.9972H100.414V22.9696H107.82V24.6892H98.3673Z" fill="#F2F2F2"/>
<path d="M109.156 17.5829H114.367V19.3854H109.156V17.5829Z" fill="#F2F2F2"/>
<path d="M125.446 10.3315V12.0718H120.846V24.6892H118.799V12.0718H114.199V10.3315H125.446Z" fill="#F2F2F2"/>
<path d="M140 10.3315C139.465 11.8508 138.952 13.2597 138.46 14.558C137.981 15.8425 137.51 17.0649 137.046 18.2251C136.582 19.3854 136.118 20.4972 135.653 21.5608C135.203 22.6105 134.739 23.6533 134.261 24.6892H132.341C131.862 23.6533 131.391 22.6105 130.927 21.5608C130.477 20.4972 130.013 19.3854 129.534 18.2251C129.07 17.0649 128.592 15.8425 128.099 14.558C127.607 13.2597 127.101 11.8508 126.58 10.3315H128.838C129.598 12.5138 130.343 14.6133 131.075 16.6298C131.806 18.6464 132.559 20.5387 133.332 22.3066C134.106 20.5525 134.859 18.6671 135.59 16.6506C136.322 14.6202 137.06 12.5138 137.806 10.3315H140Z" fill="#F2F2F2"/>
<path d="M18 0C14.4399 0 10.9598 1.05568 7.99974 3.03355C5.03966 5.01141 2.73256 7.82262 1.37018 11.1117C0.00780087 14.4008 -0.348661 18.02 0.345872 21.5116C1.04041 25.0033 2.75474 28.2106 5.27209 30.7279C7.78943 33.2453 10.9967 34.9596 14.4884 35.6541C17.98 36.3487 21.5992 35.9922 24.8883 34.6298C28.1774 33.2674 30.9886 30.9603 32.9665 28.0003C34.9443 25.0402 36 21.5601 36 18C35.9978 13.2268 34.1007 8.64969 30.7255 5.27452C27.3503 1.89934 22.7732 0.0022101 18 0ZM14.4 26.1V9.89999L25.2 18L14.4 26.1Z" fill="url(#paint0_linear)"/>
<defs>
<linearGradient id="paint0_linear" x1="0" y1="0" x2="35.8944" y2="35.8944" gradientUnits="userSpaceOnUse">
<stop stop-color="#3A6790"/>
<stop offset="1" stop-color="#59347D"/>
</linearGradient>
</defs>
</svg>
