<svg width="95" height="107" viewBox="0 0 95 107" fill="none" xmlns="http://www.w3.org/2000/svg">
<rect width="95" height="107" fill="#333333"/>
<path d="M37 48C39.7614 48 42 45.7614 42 43C42 40.2386 39.7614 38 37 38C34.2386 38 32 40.2386 32 43C32 45.7614 34.2386 48 37 48Z" fill="#8A8A8A"/>
<path d="M59 48C61.7614 48 64 45.7614 64 43C64 40.2386 61.7614 38 59 38C56.2386 38 54 40.2386 54 43C54 45.7614 56.2386 48 59 48Z" fill="#8A8A8A"/>
<path d="M32 59C39.225 70.8304 58.35 71.1684 66 59" stroke="#8A8A8A" stroke-width="1.5"/>
<circle cx="48" cy="54" r="33.25" stroke="#8A8A8A" stroke-width="1.5"/>
</svg>
