<svg width="17" height="16" viewBox="0 0 17 16" fill="none" xmlns="http://www.w3.org/2000/svg">
<path d="M10.4222 9.33333H9.89556L9.7089 9.15333C10.3622 8.39333 10.7556 7.40667 10.7556 6.33333C10.7556 3.94 8.81556 2 6.42223 2C4.0289 2 2.0889 3.94 2.0889 6.33333C2.0889 8.72667 4.0289 10.6667 6.42223 10.6667C7.49556 10.6667 8.48223 10.2733 9.24223 9.62L9.42223 9.80667V10.3333L12.7556 13.66L13.7489 12.6667L10.4222 9.33333V9.33333ZM6.42223 9.33333C4.76223 9.33333 3.42223 7.99333 3.42223 6.33333C3.42223 4.67333 4.76223 3.33333 6.42223 3.33333C8.08223 3.33333 9.42223 4.67333 9.42223 6.33333C9.42223 7.99333 8.08223 9.33333 6.42223 9.33333Z" fill="#8A8A8A"/>
</svg>
