<svg width="30" height="30" viewBox="0 0 30 30" fill="none" xmlns="http://www.w3.org/2000/svg">
<path d="M29.3261 12.7229C29.9678 12.1367 29.6076 11.0673 28.742 10.9887L20.1045 10.2047C19.731 10.1708 19.4078 9.93068 19.2675 9.58279L15.9281 1.30165C15.5915 0.466726 14.4093 0.467036 14.0731 1.30213L10.7327 9.59825C10.5924 9.94687 10.2684 10.1874 9.89405 10.2208L1.26555 10.9914C0.398693 11.0688 0.0376164 12.1399 0.680695 12.7263L7.30823 18.7699C7.57284 19.0112 7.68822 19.3756 7.61074 19.7252L5.6334 28.6473C5.44077 29.5165 6.39452 30.1852 7.14596 29.7078L14.4637 25.0586C14.791 24.8507 15.209 24.8507 15.5363 25.0586L22.8577 29.7101C23.6087 30.1872 24.562 29.5198 24.3706 28.6509L22.4042 19.7239C22.3274 19.375 22.4425 19.0115 22.7063 18.7705L29.3261 12.7229ZM15.5424 23.7636C15.2119 23.5549 14.79 23.5579 14.4625 23.7713L7.6351 28.2202C7.25859 28.4656 6.77474 28.1283 6.87464 27.6902L8.86752 18.9495C8.94914 18.5915 8.82801 18.2176 8.55198 17.9754L2.67974 12.8243C2.34887 12.5341 2.52733 11.9888 2.96577 11.9504L10.7703 11.2658C11.1549 11.232 11.4857 10.9799 11.6203 10.618L14.5313 2.78705C14.6928 2.35268 15.3072 2.35268 15.4687 2.78705L18.3789 10.6157C18.5139 10.9788 18.8463 11.2313 19.2323 11.2638L27.3834 11.9502C27.8292 11.9877 28.0051 12.547 27.661 12.833L21.4573 17.9884C21.1754 18.2226 21.0443 18.5922 21.1154 18.9517L22.7742 27.3329C22.8595 27.7635 22.3879 28.0871 22.0167 27.8527L15.5424 23.7636Z" fill="#F2F2F2"/>
</svg>
