<svg width="20" height="20" viewBox="0 0 20 20" fill="none" xmlns="http://www.w3.org/2000/svg">
<path d="M10 0C8.02219 0 6.08879 0.58649 4.4443 1.6853C2.79981 2.78412 1.51809 4.3459 0.76121 6.17316C0.00433381 8.00042 -0.193701 10.0111 0.192151 11.9509C0.578003 13.8907 1.53041 15.6725 2.92894 17.0711C4.32746 18.4696 6.10929 19.422 8.0491 19.8078C9.98891 20.1937 11.9996 19.9957 13.8268 19.2388C15.6541 18.4819 17.2159 17.2002 18.3147 15.5557C19.4135 13.9112 20 11.9778 20 10C19.9988 7.34821 18.9448 4.80538 17.0697 2.93029C15.1946 1.05519 12.6518 0.00122783 10 0ZM8 14.5V5.5L14 10L8 14.5Z" fill="#222222"/>
</svg>
