<svg width="36" height="36" viewBox="0 0 36 36" fill="none" xmlns="http://www.w3.org/2000/svg">
<path d="M18 0C14.4399 0 10.9598 1.05568 7.99974 3.03355C5.03966 5.01141 2.73256 7.82263 1.37018 11.1117C0.00780082 14.4008 -0.348661 18.02 0.345872 21.5116C1.04041 25.0033 2.75474 28.2106 5.27209 30.7279C7.78943 33.2453 10.9967 34.9596 14.4884 35.6541C17.98 36.3487 21.5992 35.9922 24.8883 34.6298C28.1774 33.2674 30.9886 30.9603 32.9665 28.0003C34.9443 25.0402 36 21.5601 36 18C35.9978 13.2268 34.1007 8.64969 30.7255 5.27452C27.3503 1.89934 22.7732 0.0022101 18 0ZM14.4 26.1V9.89999L25.2 18L14.4 26.1Z" fill="#FF4B4B"/>
</svg>
