<svg width="375" height="219" viewBox="0 0 375 219" fill="none" xmlns="http://www.w3.org/2000/svg">
<path d="M290.578 42.6676H54.566C52.0443 42.6676 50 45.5023 50 48.999V165.603C50 169.099 52.0443 171.934 54.566 171.934H290.578C293.099 171.934 295.144 169.099 295.144 165.603V48.999C295.144 45.5023 293.099 42.6676 290.578 42.6676Z" fill="#F2F2F2"/>
<path d="M302.272 32H67.5754C64.5157 32 62.0354 35.4304 62.0354 39.6621V153.604C62.0354 157.836 64.5157 161.266 67.5754 161.266H302.272C305.332 161.266 307.812 157.836 307.812 153.604V39.6621C307.812 35.4304 305.332 32 302.272 32Z" stroke="#888888" stroke-miterlimit="10"/>
<path d="M176.557 94.4516V88.8858L196.256 103.597L191.721 106.713M198.655 132.401C202.762 130.207 206.354 127.166 209.189 123.482C212.025 119.798 214.041 115.555 215.101 111.035C216.162 106.515 216.244 101.822 215.342 97.2682C214.44 92.7143 212.574 88.4039 209.868 84.6239C207.163 80.8439 203.68 77.6809 199.652 75.3453C195.623 73.0098 191.141 71.5552 186.504 71.0784C181.867 70.6016 177.181 71.1135 172.758 72.5801C168.336 74.0466 164.277 76.4342 160.853 79.584L198.655 132.401Z" stroke="#888888" stroke-miterlimit="10"/>
<path d="M178.59 74.6705C172.075 74.6705 165.706 76.5842 160.29 80.1697C154.873 83.7552 150.651 88.8513 148.158 94.8138C145.665 100.776 145.012 107.337 146.283 113.667C147.554 119.996 150.691 125.811 155.298 130.374C159.905 134.937 165.774 138.045 172.163 139.304C178.553 140.563 185.176 139.917 191.195 137.447C197.214 134.978 202.358 130.795 205.977 125.429C209.597 120.063 211.529 113.755 211.529 107.301C211.525 98.648 208.053 90.3506 201.877 84.2321C195.7 78.1136 187.324 74.6745 178.59 74.6705ZM172.002 121.985V92.6172L191.765 107.301L172.002 121.985Z" fill="#980000"/>
<path d="M233.228 128.195C233.228 156.289 251.077 179.023 273.135 179.023L233.228 128.195Z" fill="#980000"/>
<path d="M273.135 179.023C273.135 150.582 293.251 127.567 318.11 127.567L273.135 179.023Z" fill="#075485"/>
<path d="M247.797 130.705C247.797 157.412 259.13 179.023 273.135 179.023L247.797 130.705Z" fill="#075485"/>
<path d="M273.135 179.023C273.135 142.604 296.367 113.135 325.078 113.135L273.135 179.023Z" fill="#980000"/>
<path d="M264.9 179.564C264.9 179.564 270.518 179.39 272.211 178.178C273.904 176.967 280.853 175.52 281.273 177.463C281.693 179.406 289.715 187.127 283.373 187.179C277.03 187.23 268.636 186.186 266.946 185.151C265.256 184.117 264.9 179.564 264.9 179.564Z" fill="#A8A8A8"/>
<path opacity="0.2" d="M263.259 183.376C256.916 183.427 248.521 182.395 246.831 181.374C245.544 180.596 245.032 177.804 244.86 176.516C244.741 176.521 244.672 176.523 244.672 176.523C244.672 176.523 245.028 181.02 246.718 182.042C248.408 183.063 256.803 184.095 263.146 184.044C264.977 184.029 265.609 183.383 265.575 182.425C265.32 183.004 264.622 183.365 263.259 183.376Z" fill="black"/>
<path d="M230.338 183.418H265.811" stroke="#888888" stroke-miterlimit="10"/>
</svg>
