<svg width="164" height="97" viewBox="0 0 164 97" fill="none" xmlns="http://www.w3.org/2000/svg">
<path d="M131.213 18.7249H27.9969C26.894 18.7249 26 19.9804 26 21.5292V73.1756C26 74.7244 26.894 75.9799 27.9969 75.9799H131.213C132.315 75.9799 133.209 74.7244 133.209 73.1756V21.5292C133.209 19.9804 132.315 18.7249 131.213 18.7249Z" fill="#F2F2F2"/>
<path d="M136.327 14H33.6863C32.3482 14 31.2634 15.5194 31.2634 17.3937V67.8613C31.2634 69.7356 32.3482 71.255 33.6863 71.255H136.327C137.665 71.255 138.75 69.7356 138.75 67.8613V17.3937C138.75 15.5194 137.665 14 136.327 14Z" stroke="#888888" stroke-miterlimit="10"/>
<path d="M81.3475 41.6612V39.196L89.9627 45.7119L87.9794 47.0919M91.0117 58.4699C92.8081 57.4978 94.3787 56.1511 95.6189 54.5194C96.8591 52.8877 97.7404 51.0083 98.2044 49.0063C98.6683 47.0044 98.7042 44.9257 98.3096 42.9087C97.9149 40.8917 97.0989 38.9826 95.9158 37.3083C94.7326 35.634 93.2094 34.2331 91.4476 33.1986C89.6858 32.1641 87.7257 31.5199 85.6978 31.3087C83.6699 31.0975 81.6206 31.3242 79.6864 31.9738C77.7521 32.6234 75.9772 33.6809 74.4797 35.076L91.0117 58.4699Z" stroke="#888888" stroke-miterlimit="10"/>
<path d="M82.2365 32.8997C79.3873 32.8997 76.6022 33.7474 74.2332 35.3354C71.8643 36.9235 70.0179 39.1807 68.9276 41.8216C67.8373 44.4625 67.552 47.3685 68.1079 50.172C68.6637 52.9756 70.0357 55.5508 72.0503 57.5721C74.0649 59.5933 76.6317 60.9698 79.4261 61.5275C82.2205 62.0851 85.1169 61.7989 87.7492 60.705C90.3814 59.6111 92.6312 57.7587 94.2141 55.3819C95.797 53.0052 96.6419 50.2109 96.6419 47.3524C96.6401 43.5199 95.1218 39.8448 92.4207 37.1348C89.7195 34.4248 86.0565 32.9015 82.2365 32.8997ZM79.3554 53.8562V40.8487L87.9986 47.3524L79.3554 53.8562Z" fill="#980000"/>
<path opacity="0.2" d="M119.265 81.0478C116.491 81.0703 112.82 80.6135 112.081 80.161C111.518 79.8164 111.294 78.5798 111.219 78.0093C111.167 78.0115 111.137 78.0125 111.137 78.0125C111.137 78.0125 111.292 80.0043 112.031 80.4569C112.77 80.9094 116.442 81.3662 119.216 81.3437C120.017 81.3372 120.293 81.0509 120.278 80.6267C120.167 80.883 119.861 81.043 119.265 81.0478Z" fill="black"/>
</svg>
