<svg width="323" height="189" viewBox="0 0 323 189" fill="none" xmlns="http://www.w3.org/2000/svg">
<path d="M241.671 41.1379H38.3862C36.2142 41.1379 34.4534 43.5843 34.4534 46.602V147.233C34.4534 150.25 36.2142 152.697 38.3862 152.697H241.671C243.843 152.697 245.604 150.25 245.604 147.233V46.602C245.604 43.5843 243.843 41.1379 241.671 41.1379Z" fill="#F2F2F2"/>
<path d="M251.744 31.9315H49.5914C46.956 31.9315 44.8196 34.892 44.8196 38.544V136.878C44.8196 140.53 46.956 143.49 49.5914 143.49H251.744C254.379 143.49 256.516 140.53 256.516 136.878V38.544C256.516 34.892 254.379 31.9315 251.744 31.9315Z" stroke="#888888" stroke-miterlimit="10"/>
<path d="M143.461 85.8281V81.0248L160.429 93.7207L156.523 96.4096M162.495 118.579C166.033 116.685 169.126 114.061 171.569 110.882C174.011 107.702 175.747 104.041 176.661 100.14C177.575 96.2391 177.645 92.189 176.868 88.2589C176.091 84.3288 174.484 80.6089 172.154 77.3467C169.823 74.0845 166.823 71.3548 163.354 69.3392C159.884 67.3235 156.023 66.0682 152.029 65.6567C148.035 65.2453 143.999 65.6871 140.19 66.9527C136.38 68.2184 132.884 70.2789 129.935 72.9972L162.495 118.579Z" stroke="#888888" stroke-miterlimit="10"/>
<path d="M145.212 68.7567C139.6 68.7567 134.115 70.4082 129.449 73.5025C124.784 76.5969 121.147 80.9949 119 86.1406C116.852 91.2862 116.291 96.9483 117.385 102.411C118.48 107.874 121.182 112.891 125.15 116.83C129.118 120.768 134.173 123.45 139.677 124.536C145.18 125.623 150.885 125.065 156.069 122.934C161.253 120.803 165.684 117.193 168.802 112.562C171.919 107.931 173.583 102.487 173.583 96.9171C173.58 89.4495 170.59 82.2888 165.27 77.0085C159.95 71.7281 152.735 68.7601 145.212 68.7567ZM139.537 109.589V84.2449L156.56 96.9171L139.537 109.589Z" fill="#980000"/>
<path d="M246.808 86.9153C242.592 83.6922 237.533 81.7662 232.245 81.3716C226.957 80.9771 221.669 82.131 217.023 84.693C212.378 87.255 208.576 91.1145 206.08 95.8021C203.584 100.49 202.502 105.803 202.965 111.096C203.428 116.388 205.416 121.432 208.688 125.613C211.959 129.794 216.373 132.932 221.393 134.646C226.412 136.359 231.82 136.573 236.959 135.263C242.098 133.953 246.746 131.175 250.337 127.266L285.237 153.95C285.501 154.152 285.801 154.299 286.121 154.384C286.441 154.469 286.774 154.49 287.102 154.446C287.43 154.402 287.747 154.293 288.033 154.127C288.319 153.96 288.57 153.739 288.771 153.475C288.971 153.211 289.118 152.911 289.203 152.59C289.288 152.269 289.309 151.935 289.265 151.606C289.221 151.278 289.113 150.961 288.946 150.674C288.78 150.387 288.559 150.136 288.296 149.935L253.396 123.251C257.014 117.461 258.345 110.526 257.126 103.804C255.908 97.083 252.228 91.0599 246.808 86.9153ZM246.305 120.865C243.847 124.093 240.487 126.518 236.653 127.834C232.818 129.15 228.68 129.297 224.762 128.256C220.844 127.215 217.323 125.034 214.642 121.988C211.961 118.942 210.243 115.167 209.703 111.142C209.163 107.117 209.827 103.022 211.61 99.3754C213.393 95.7283 216.215 92.6929 219.72 90.653C223.225 88.613 227.254 87.6602 231.3 87.915C235.345 88.1699 239.224 89.6208 242.446 92.0845C246.767 95.3882 249.601 100.276 250.325 105.674C251.048 111.071 249.603 116.535 246.305 120.865Z" fill="#075485"/>
<path opacity="0.3" d="M220.639 120.644C216.997 117.613 214.643 113.341 214.047 108.679C213.45 104.016 214.653 99.302 217.417 95.4734C217.054 95.8339 216.703 96.2115 216.364 96.6062C214.756 98.4853 213.539 100.658 212.783 103.001C212.026 105.344 211.745 107.811 211.956 110.262C212.166 112.712 212.864 115.097 214.009 117.281C215.154 119.465 216.725 121.406 218.63 122.991C220.536 124.577 222.74 125.777 225.116 126.523C227.492 127.269 229.993 127.546 232.478 127.338C234.962 127.13 237.381 126.442 239.596 125.313C241.811 124.183 243.778 122.634 245.386 120.755C245.724 120.36 246.043 119.955 246.341 119.541C242.979 122.872 238.47 124.835 233.708 125.039C228.947 125.243 224.282 123.674 220.639 120.644Z" fill="#888888"/>
</svg>
